<?xml version="1.0" encoding="utf-8"?>
<!-- Generator: Adobe Illustrator 27.2.0, SVG Export Plug-In . SVG Version: 6.00 Build 0)  -->
<svg version="1.1" id="Слой_1" xmlns="http://www.w3.org/2000/svg" xmlns:xlink="http://www.w3.org/1999/xlink" x="0px" y="0px"
	 viewBox="0 0 216 936" style="enable-background:new 0 0 216 936;" xml:space="preserve">
<style type="text/css">
	.st0{fill:none;}
</style>
<path class="st0" d="M3.3,816.2c0,17.5,10.3,21.6,15.4,22.6c0,26.8,17.5,13.4,30.9,24.7c7.2,10.3-1,22.5,10.3,33.3
	c10.3,9.9,39.1,20.2,48.4,33.6c9.3-13.4,38.1-23.7,48.4-33.6c11.3-10.9,3.1-23,10.3-33.3c13.4-11.3,30.9,2.1,30.9-24.7
	c5.1-1,15.4-5.1,15.4-22.6V120.6c0-17.5-10.3-21.6-15.4-22.6c0-26.8-17.5-13.4-30.9-24.7c-7.2-10.3,1-22.5-10.3-33.3
	c-10.3-9.9-39.1-20.2-48.4-33.6C99,19.8,70.2,30.1,59.9,40c-11.3,10.9-3.1,23-10.3,33.3C36.2,84.6,18.7,71.2,18.7,98
	c-5.1,1-15.4,5.2-15.4,22.7V816.2z"/>
</svg>
