<?xml version="1.0" encoding="utf-8"?>
<!-- Generator: Adobe Illustrator 27.2.0, SVG Export Plug-In . SVG Version: 6.00 Build 0)  -->
<svg version="1.1" id="Слой_1" xmlns="http://www.w3.org/2000/svg" xmlns:xlink="http://www.w3.org/1999/xlink" x="0px" y="0px"
	 viewBox="0 0 216 936" style="enable-background:new 0 0 216 936;" xml:space="preserve">
<style type="text/css">
	.st0{fill:url(#SVGID_1_);stroke:#CAD6F7;stroke-width:5;stroke-miterlimit:10;}
	.st1{opacity:0.3;fill:none;stroke:#CAD6F7;stroke-width:4;stroke-miterlimit:10;}
	.st2{fill:#ECF5F0;}
	.st3{fill:none;stroke:#ECF5F0;stroke-width:3;stroke-linejoin:round;stroke-miterlimit:10;}
	.st4{fill:#D8E1BF;stroke:#D8E1BF;stroke-width:2;stroke-linejoin:round;stroke-miterlimit:10;}
	.st5{fill:#D8E1BF;}
	.st6{fill:none;stroke:#D8E1BF;stroke-width:2;stroke-linejoin:round;stroke-miterlimit:10;}
</style>
<g>
	
		<linearGradient id="SVGID_1_" gradientUnits="userSpaceOnUse" x1="-996.2474" y1="-485.3918" x2="-996.2474" y2="438.6082" gradientTransform="matrix(-1 0 0 -1 -888 445)">
		<stop  offset="0" style="stop-color:#374D64"/>
		<stop  offset="0.0853" style="stop-color:#4E6270"/>
		<stop  offset="0.3685" style="stop-color:#96A497"/>
		<stop  offset="0.5" style="stop-color:#B3BEA6"/>
		<stop  offset="0.5821" style="stop-color:#AFBBA5"/>
		<stop  offset="0.6668" style="stop-color:#A2B0A1"/>
		<stop  offset="0.7527" style="stop-color:#8E9F9A"/>
		<stop  offset="0.8389" style="stop-color:#718890"/>
		<stop  offset="0.9" style="stop-color:#587388"/>
	</linearGradient>
	<path class="st0" d="M3.29,816.18c0,17.49,10.29,21.61,15.43,22.64c0,26.75,17.49,13.38,30.87,24.69c7.2,10.29-1,22.45,10.28,33.3
		c10.3,9.91,39.11,20.2,48.37,33.58c9.26-13.38,38.07-23.67,48.37-33.58c11.28-10.86,3.08-23.01,10.28-33.3
		c13.38-11.32,30.87,2.06,30.87-24.69c5.14-1.03,15.43-5.14,15.43-22.64V120.61c0-17.49-10.29-21.61-15.43-22.64
		c0-26.75-17.49-13.38-30.87-24.69c-7.2-10.29,1-22.45-10.28-33.3c-10.3-9.91-39.11-20.2-48.37-33.58
		c-9.26,13.38-38.07,23.67-48.37,33.58C48.6,50.83,56.8,62.98,49.6,73.27c-13.38,11.32-30.87-2.06-30.87,24.69
		C13.58,99,3.29,103.11,3.29,120.61V816.18z"/>
	<path class="st1" d="M107.73,19.15c-6.79,5.85-15.69,10.83-24.39,15.7c-7.1,3.97-14.45,8.08-17.92,11.42
		c-3.58,3.45-3.85,6.6-4.07,12.84c-0.2,5.57-0.44,12.5-5.11,19.17l-0.65,0.93l-0.87,0.73c-6.9,5.84-14.45,6.92-19.95,7.7
		c-2.42,0.34-5.42,0.77-6.22,1.49c-0.59,0.53-1.6,2.99-1.6,8.83v7.17l-7.03,1.41c-2.08,0.42-8.4,1.68-8.4,14.06v695.57
		c0,12.38,6.32,13.64,8.4,14.06l7.03,1.41v7.17c0,5.84,1,8.29,1.6,8.83c0.8,0.72,3.81,1.15,6.22,1.49
		c5.51,0.78,13.05,1.86,19.95,7.7l0.87,0.73l0.65,0.93c4.67,6.67,4.91,13.6,5.11,19.17c0.22,6.24,0.49,9.4,4.07,12.84
		c3.47,3.34,10.81,7.45,17.92,11.43c8.69,4.86,17.6,9.85,24.39,15.7c6.79-5.85,15.69-10.83,24.39-15.7
		c7.1-3.97,14.45-8.08,17.92-11.43c3.58-3.45,3.85-6.6,4.07-12.84c0.2-5.57,0.44-12.5,5.11-19.17l0.65-0.93l0.87-0.73
		c6.9-5.84,14.45-6.92,19.95-7.7c2.42-0.34,5.42-0.77,6.22-1.49c0.59-0.53,1.6-2.99,1.6-8.83v-7.17l7.03-1.41
		c2.08-0.42,8.4-1.68,8.4-14.06V120.61c0-12.38-6.32-13.65-8.4-14.06l-7.03-1.41v-7.17c0-5.84-1-8.29-1.6-8.83
		c-0.8-0.72-3.81-1.15-6.22-1.49c-5.51-0.78-13.05-1.86-19.95-7.7l-0.87-0.73l-0.65-0.93c-4.67-6.67-4.91-13.6-5.11-19.17
		c-0.22-6.24-0.49-9.39-4.07-12.84c-3.47-3.34-10.81-7.45-17.92-11.42C123.43,29.98,114.52,25,107.73,19.15z"/>
	<g>
		<g>
			<path class="st2" d="M119.4,57.39c-7.31,2.68-9.48,4.84-12.15,12.15c-2.68-7.31-4.85-9.48-12.15-12.15
				c7.31-2.68,9.48-4.85,12.15-12.16C109.92,52.55,112.09,54.72,119.4,57.39z"/>
			<path class="st3" d="M119.4,57.39c-7.31,2.68-9.48,4.84-12.15,12.15c-2.68-7.31-4.85-9.48-12.15-12.15
				c7.31-2.68,9.48-4.85,12.15-12.16C109.92,52.55,112.09,54.72,119.4,57.39z"/>
		</g>
		<g>
			<path class="st2" d="M119.4,206.39c-7.31,2.68-9.48,4.85-12.15,12.15c-2.68-7.31-4.85-9.48-12.15-12.15
				c7.31-2.68,9.48-4.85,12.15-12.15C109.92,201.55,112.09,203.72,119.4,206.39z"/>
			<path class="st3" d="M119.4,206.39c-7.31,2.68-9.48,4.85-12.15,12.15c-2.68-7.31-4.85-9.48-12.15-12.15
				c7.31-2.68,9.48-4.85,12.15-12.15C109.92,201.55,112.09,203.72,119.4,206.39z"/>
		</g>
		<g>
			<path class="st2" d="M135.13,131.39c-16.77,6.14-21.75,11.12-27.88,27.88c-6.14-16.77-11.11-21.75-27.89-27.88
				c16.77-6.14,21.75-11.11,27.89-27.89C113.39,120.28,118.36,125.25,135.13,131.39z"/>
			<path class="st3" d="M135.13,131.39c-16.77,6.14-21.75,11.12-27.88,27.88c-6.14-16.77-11.11-21.75-27.89-27.88
				c16.77-6.14,21.75-11.11,27.89-27.89C113.39,120.28,118.36,125.25,135.13,131.39z"/>
		</g>
	</g>
	<g>
		<path class="st4" d="M125.75,441.89"/>
		<g>
			<path class="st5" d="M118.26,465.89c-6.02,3.75-7.81,6.78-10.01,17.02c-2.2-10.23-3.99-13.27-10.01-17.02
				c6.02-3.75,7.81-6.78,10.01-17.02C110.45,459.11,112.24,462.15,118.26,465.89z"/>
			<path class="st6" d="M118.26,465.89c-6.02,3.75-7.81,6.78-10.01,17.02c-2.2-10.23-3.99-13.27-10.01-17.02
				c6.02-3.75,7.81-6.78,10.01-17.02C110.45,459.11,112.24,462.15,118.26,465.89z"/>
		</g>
		<g>
			<path class="st5" d="M151.82,465.89c-4.55,2.83-5.9,5.13-7.57,12.87c-1.67-7.74-3.02-10.04-7.57-12.87
				c4.55-2.83,5.9-5.13,7.57-12.87C145.91,460.76,147.27,463.06,151.82,465.89z"/>
			<path class="st6" d="M151.82,465.89c-4.55,2.83-5.9,5.13-7.57,12.87c-1.67-7.74-3.02-10.04-7.57-12.87
				c4.55-2.83,5.9-5.13,7.57-12.87C145.91,460.76,147.27,463.06,151.82,465.89z"/>
		</g>
		<g>
			<path class="st5" d="M79.82,465.89c-4.55,2.83-5.9,5.13-7.57,12.87c-1.67-7.74-3.02-10.04-7.57-12.87
				c4.55-2.83,5.9-5.13,7.57-12.87C73.91,460.76,75.27,463.06,79.82,465.89z"/>
			<path class="st6" d="M79.82,465.89c-4.55,2.83-5.9,5.13-7.57,12.87c-1.67-7.74-3.02-10.04-7.57-12.87
				c4.55-2.83,5.9-5.13,7.57-12.87C73.91,460.76,75.27,463.06,79.82,465.89z"/>
		</g>
		<g>
			<path class="st5" d="M95.82,438.89c-4.55,2.83-5.9,5.13-7.57,12.87c-1.67-7.74-3.02-10.04-7.57-12.87
				c4.55-2.83,5.9-5.13,7.57-12.87C89.91,433.76,91.27,436.06,95.82,438.89z"/>
			<path class="st6" d="M95.82,438.89c-4.55,2.83-5.9,5.13-7.57,12.87c-1.67-7.74-3.02-10.04-7.57-12.87
				c4.55-2.83,5.9-5.13,7.57-12.87C89.91,433.76,91.27,436.06,95.82,438.89z"/>
		</g>
		<g>
			<path class="st5" d="M133.82,437.89c-4.55,2.83-5.9,5.13-7.57,12.87c-1.67-7.74-3.02-10.04-7.57-12.87
				c4.55-2.83,5.9-5.13,7.57-12.87C127.91,432.76,129.27,435.06,133.82,437.89z"/>
			<path class="st6" d="M133.82,437.89c-4.55,2.83-5.9,5.13-7.57,12.87c-1.67-7.74-3.02-10.04-7.57-12.87
				c4.55-2.83,5.9-5.13,7.57-12.87C127.91,432.76,129.27,435.06,133.82,437.89z"/>
		</g>
		<g>
			<path class="st5" d="M115.82,413.89c-4.55,2.83-5.9,5.13-7.57,12.87c-1.67-7.74-3.02-10.04-7.57-12.87
				c4.55-2.83,5.9-5.13,7.57-12.87C109.91,408.76,111.27,411.06,115.82,413.89z"/>
			<path class="st6" d="M115.82,413.89c-4.55,2.83-5.9,5.13-7.57,12.87c-1.67-7.74-3.02-10.04-7.57-12.87
				c4.55-2.83,5.9-5.13,7.57-12.87C109.91,408.76,111.27,411.06,115.82,413.89z"/>
		</g>
		<g>
			<path class="st5" d="M133.82,492.89c-4.55,2.83-5.9,5.13-7.57,12.87c-1.67-7.74-3.02-10.04-7.57-12.87
				c4.55-2.83,5.9-5.13,7.57-12.87C127.91,487.76,129.27,490.06,133.82,492.89z"/>
			<path class="st6" d="M133.82,492.89c-4.55,2.83-5.9,5.13-7.57,12.87c-1.67-7.74-3.02-10.04-7.57-12.87
				c4.55-2.83,5.9-5.13,7.57-12.87C127.91,487.76,129.27,490.06,133.82,492.89z"/>
		</g>
		<g>
			<path class="st5" d="M96.82,492.89c-4.55,2.83-5.9,5.13-7.57,12.87c-1.67-7.74-3.02-10.04-7.57-12.87
				c4.55-2.83,5.9-5.13,7.57-12.87C90.91,487.76,92.27,490.06,96.82,492.89z"/>
			<path class="st6" d="M96.82,492.89c-4.55,2.83-5.9,5.13-7.57,12.87c-1.67-7.74-3.02-10.04-7.57-12.87
				c4.55-2.83,5.9-5.13,7.57-12.87C90.91,487.76,92.27,490.06,96.82,492.89z"/>
		</g>
		<g>
			<path class="st5" d="M165.25,492.89c-3.01,1.87-3.9,3.39-5.01,8.51c-1.1-5.12-1.99-6.64-5.01-8.51c3.01-1.87,3.9-3.39,5.01-8.51
				C161.35,489.5,162.24,491.02,165.25,492.89z"/>
			<path class="st6" d="M165.25,492.89c-3.01,1.87-3.9,3.39-5.01,8.51c-1.1-5.12-1.99-6.64-5.01-8.51c3.01-1.87,3.9-3.39,5.01-8.51
				C161.35,489.5,162.24,491.02,165.25,492.89z"/>
		</g>
		<g>
			<path class="st5" d="M149.25,517.89c-3.01,1.87-3.9,3.39-5.01,8.51c-1.1-5.12-1.99-6.64-5.01-8.51c3.01-1.87,3.9-3.39,5.01-8.51
				C145.35,514.5,146.24,516.02,149.25,517.89z"/>
			<path class="st6" d="M149.25,517.89c-3.01,1.87-3.9,3.39-5.01,8.51c-1.1-5.12-1.99-6.64-5.01-8.51c3.01-1.87,3.9-3.39,5.01-8.51
				C145.35,514.5,146.24,516.02,149.25,517.89z"/>
		</g>
		<g>
			<path class="st5" d="M113.25,517.89c-3.01,1.87-3.9,3.39-5.01,8.51c-1.1-5.12-1.99-6.64-5-8.51c3.01-1.87,3.9-3.39,5-8.51
				C109.35,514.5,110.24,516.02,113.25,517.89z"/>
			<path class="st6" d="M113.25,517.89c-3.01,1.87-3.9,3.39-5.01,8.51c-1.1-5.12-1.99-6.64-5-8.51c3.01-1.87,3.9-3.39,5-8.51
				C109.35,514.5,110.24,516.02,113.25,517.89z"/>
		</g>
		<g>
			<path class="st5" d="M95.25,538.89c-3.01,1.87-3.9,3.39-5.01,8.51c-1.1-5.12-1.99-6.64-5-8.51c3.01-1.87,3.9-3.39,5-8.51
				C91.35,535.5,92.24,537.02,95.25,538.89z"/>
			<path class="st6" d="M95.25,538.89c-3.01,1.87-3.9,3.39-5.01,8.51c-1.1-5.12-1.99-6.64-5-8.51c3.01-1.87,3.9-3.39,5-8.51
				C91.35,535.5,92.24,537.02,95.25,538.89z"/>
		</g>
		<g>
			<path class="st5" d="M78.25,516.89c-3.01,1.87-3.9,3.39-5.01,8.51c-1.1-5.12-1.99-6.64-5-8.51c3.01-1.87,3.9-3.39,5-8.51
				C74.35,513.5,75.24,515.02,78.25,516.89z"/>
			<path class="st6" d="M78.25,516.89c-3.01,1.87-3.9,3.39-5.01,8.51c-1.1-5.12-1.99-6.64-5-8.51c3.01-1.87,3.9-3.39,5-8.51
				C74.35,513.5,75.24,515.02,78.25,516.89z"/>
		</g>
		<g>
			<path class="st5" d="M59.61,538.89c-2.02,1.26-2.62,2.28-3.36,5.72c-0.74-3.44-1.34-4.46-3.36-5.72
				c2.02-1.26,2.62-2.28,3.36-5.72C56.99,536.61,57.59,537.63,59.61,538.89z"/>
			<path class="st6" d="M59.61,538.89c-2.02,1.26-2.62,2.28-3.36,5.72c-0.74-3.44-1.34-4.46-3.36-5.72
				c2.02-1.26,2.62-2.28,3.36-5.72C56.99,536.61,57.59,537.63,59.61,538.89z"/>
		</g>
		<g>
			<path class="st5" d="M40.61,515.89c-2.02,1.26-2.62,2.28-3.36,5.72c-0.74-3.44-1.34-4.46-3.36-5.72
				c2.02-1.26,2.62-2.28,3.36-5.72C37.99,513.61,38.59,514.63,40.61,515.89z"/>
			<path class="st6" d="M40.61,515.89c-2.02,1.26-2.62,2.28-3.36,5.72c-0.74-3.44-1.34-4.46-3.36-5.72
				c2.02-1.26,2.62-2.28,3.36-5.72C37.99,513.61,38.59,514.63,40.61,515.89z"/>
		</g>
		<g>
			<path class="st5" d="M130.25,538.89c-3.01,1.87-3.9,3.39-5.01,8.51c-1.1-5.12-1.99-6.64-5-8.51c3.01-1.87,3.9-3.39,5-8.51
				C126.35,535.5,127.24,537.02,130.25,538.89z"/>
			<path class="st6" d="M130.25,538.89c-3.01,1.87-3.9,3.39-5.01,8.51c-1.1-5.12-1.99-6.64-5-8.51c3.01-1.87,3.9-3.39,5-8.51
				C126.35,535.5,127.24,537.02,130.25,538.89z"/>
		</g>
		<g>
			<path class="st5" d="M182.61,516.89c-2.02,1.26-2.62,2.28-3.36,5.72c-0.74-3.44-1.34-4.46-3.36-5.72
				c2.02-1.26,2.62-2.28,3.36-5.72C179.99,514.61,180.59,515.63,182.61,516.89z"/>
			<path class="st6" d="M182.61,516.89c-2.02,1.26-2.62,2.28-3.36,5.72c-0.74-3.44-1.34-4.46-3.36-5.72
				c2.02-1.26,2.62-2.28,3.36-5.72C179.99,514.61,180.59,515.63,182.61,516.89z"/>
		</g>
		<g>
			<path class="st5" d="M163.61,539.89c-2.02,1.26-2.62,2.28-3.36,5.72c-0.74-3.44-1.34-4.46-3.36-5.72
				c2.02-1.26,2.62-2.28,3.36-5.72C160.99,537.61,161.59,538.63,163.61,539.89z"/>
			<path class="st6" d="M163.61,539.89c-2.02,1.26-2.62,2.28-3.36,5.72c-0.74-3.44-1.34-4.46-3.36-5.72
				c2.02-1.26,2.62-2.28,3.36-5.72C160.99,537.61,161.59,538.63,163.61,539.89z"/>
		</g>
		<g>
			<path class="st5" d="M145.61,564.89c-2.02,1.26-2.62,2.28-3.36,5.72c-0.74-3.44-1.34-4.46-3.36-5.72
				c2.02-1.26,2.62-2.28,3.36-5.72C142.99,562.61,143.59,563.63,145.61,564.89z"/>
			<path class="st6" d="M145.61,564.89c-2.02,1.26-2.62,2.28-3.36,5.72c-0.74-3.44-1.34-4.46-3.36-5.72
				c2.02-1.26,2.62-2.28,3.36-5.72C142.99,562.61,143.59,563.63,145.61,564.89z"/>
		</g>
		<g>
			<path class="st5" d="M128.61,585.89c-2.02,1.26-2.62,2.28-3.36,5.72c-0.74-3.44-1.34-4.46-3.36-5.72
				c2.02-1.26,2.62-2.28,3.36-5.72C125.99,583.61,126.59,584.63,128.61,585.89z"/>
			<path class="st6" d="M128.61,585.89c-2.02,1.26-2.62,2.28-3.36,5.72c-0.74-3.44-1.34-4.46-3.36-5.72
				c2.02-1.26,2.62-2.28,3.36-5.72C125.99,583.61,126.59,584.63,128.61,585.89z"/>
		</g>
		<g>
			<path class="st5" d="M111.61,610.89c-2.02,1.26-2.62,2.28-3.36,5.72c-0.74-3.44-1.34-4.46-3.36-5.72
				c2.02-1.26,2.62-2.28,3.36-5.72C108.99,608.61,109.59,609.63,111.61,610.89z"/>
			<path class="st6" d="M111.61,610.89c-2.02,1.26-2.62,2.28-3.36,5.72c-0.74-3.44-1.34-4.46-3.36-5.72
				c2.02-1.26,2.62-2.28,3.36-5.72C108.99,608.61,109.59,609.63,111.61,610.89z"/>
		</g>
		<g>
			<path class="st5" d="M93.61,586.89c-2.02,1.26-2.62,2.28-3.36,5.72c-0.74-3.44-1.34-4.46-3.36-5.72
				c2.02-1.26,2.62-2.28,3.36-5.72C90.99,584.61,91.59,585.63,93.61,586.89z"/>
			<path class="st6" d="M93.61,586.89c-2.02,1.26-2.62,2.28-3.36,5.72c-0.74-3.44-1.34-4.46-3.36-5.72
				c2.02-1.26,2.62-2.28,3.36-5.72C90.99,584.61,91.59,585.63,93.61,586.89z"/>
		</g>
		<g>
			<path class="st5" d="M75.61,564.89c-2.02,1.26-2.62,2.28-3.36,5.72c-0.74-3.44-1.34-4.46-3.36-5.72
				c2.02-1.26,2.62-2.28,3.36-5.72C72.99,562.61,73.59,563.63,75.61,564.89z"/>
			<path class="st6" d="M75.61,564.89c-2.02,1.26-2.62,2.28-3.36,5.72c-0.74-3.44-1.34-4.46-3.36-5.72
				c2.02-1.26,2.62-2.28,3.36-5.72C72.99,562.61,73.59,563.63,75.61,564.89z"/>
		</g>
		<g>
			<path class="st5" d="M112.45,565.89c-2.53,1.57-3.28,2.85-4.21,7.15c-0.93-4.3-1.68-5.58-4.21-7.15
				c2.53-1.57,3.28-2.85,4.21-7.15C109.17,563.04,109.92,564.32,112.45,565.89z"/>
			<path class="st6" d="M112.45,565.89c-2.53,1.57-3.28,2.85-4.21,7.15c-0.93-4.3-1.68-5.58-4.21-7.15
				c2.53-1.57,3.28-2.85,4.21-7.15C109.17,563.04,109.92,564.32,112.45,565.89z"/>
		</g>
		<g>
			<path class="st5" d="M165.25,438.89c-3.01,1.87-3.9,3.39-5.01,8.51c-1.1-5.12-1.99-6.64-5.01-8.51c3.01-1.87,3.9-3.39,5.01-8.51
				C161.35,435.5,162.24,437.02,165.25,438.89z"/>
			<path class="st6" d="M165.25,438.89c-3.01,1.87-3.9,3.39-5.01,8.51c-1.1-5.12-1.99-6.64-5.01-8.51c3.01-1.87,3.9-3.39,5.01-8.51
				C161.35,435.5,162.24,437.02,165.25,438.89z"/>
		</g>
		<g>
			<path class="st5" d="M148.25,413.89c-3.01,1.87-3.9,3.39-5.01,8.51c-1.1-5.12-1.99-6.64-5.01-8.51c3.01-1.87,3.9-3.39,5.01-8.51
				C144.35,410.5,145.24,412.02,148.25,413.89z"/>
			<path class="st6" d="M148.25,413.89c-3.01,1.87-3.9,3.39-5.01,8.51c-1.1-5.12-1.99-6.64-5.01-8.51c3.01-1.87,3.9-3.39,5.01-8.51
				C144.35,410.5,145.24,412.02,148.25,413.89z"/>
		</g>
		<g>
			<path class="st5" d="M130.25,392.89c-3.01,1.87-3.9,3.39-5.01,8.51c-1.1-5.12-1.99-6.64-5-8.51c3.01-1.87,3.9-3.39,5-8.51
				C126.35,389.5,127.24,391.02,130.25,392.89z"/>
			<path class="st6" d="M130.25,392.89c-3.01,1.87-3.9,3.39-5.01,8.51c-1.1-5.12-1.99-6.64-5-8.51c3.01-1.87,3.9-3.39,5-8.51
				C126.35,389.5,127.24,391.02,130.25,392.89z"/>
		</g>
		<g>
			<path class="st5" d="M113.25,369.89c-3.01,1.87-3.9,3.39-5.01,8.51c-1.1-5.12-1.99-6.64-5-8.51c3.01-1.87,3.9-3.39,5-8.51
				C109.35,366.5,110.24,368.02,113.25,369.89z"/>
			<path class="st6" d="M113.25,369.89c-3.01,1.87-3.9,3.39-5.01,8.51c-1.1-5.12-1.99-6.64-5-8.51c3.01-1.87,3.9-3.39,5-8.51
				C109.35,366.5,110.24,368.02,113.25,369.89z"/>
		</g>
		<g>
			<path class="st5" d="M96.25,392.89c-3.01,1.87-3.9,3.39-5.01,8.51c-1.1-5.12-1.99-6.64-5-8.51c3.01-1.87,3.9-3.39,5-8.51
				C92.35,389.5,93.24,391.02,96.25,392.89z"/>
			<path class="st6" d="M96.25,392.89c-3.01,1.87-3.9,3.39-5.01,8.51c-1.1-5.12-1.99-6.64-5-8.51c3.01-1.87,3.9-3.39,5-8.51
				C92.35,389.5,93.24,391.02,96.25,392.89z"/>
		</g>
		<g>
			<path class="st5" d="M78.25,413.89c-3.01,1.87-3.9,3.39-5.01,8.51c-1.1-5.12-1.99-6.64-5-8.51c3.01-1.87,3.9-3.39,5-8.51
				C74.35,410.5,75.24,412.02,78.25,413.89z"/>
			<path class="st6" d="M78.25,413.89c-3.01,1.87-3.9,3.39-5.01,8.51c-1.1-5.12-1.99-6.64-5-8.51c3.01-1.87,3.9-3.39,5-8.51
				C74.35,410.5,75.24,412.02,78.25,413.89z"/>
		</g>
		<g>
			<path class="st5" d="M61.25,437.89c-3.01,1.87-3.9,3.39-5.01,8.51c-1.1-5.12-1.99-6.64-5-8.51c3.01-1.87,3.9-3.39,5-8.51
				C57.35,434.5,58.24,436.02,61.25,437.89z"/>
			<path class="st6" d="M61.25,437.89c-3.01,1.87-3.9,3.39-5.01,8.51c-1.1-5.12-1.99-6.64-5-8.51c3.01-1.87,3.9-3.39,5-8.51
				C57.35,434.5,58.24,436.02,61.25,437.89z"/>
		</g>
		<g>
			<path class="st5" d="M61.25,492.89c-3.01,1.87-3.9,3.39-5.01,8.51c-1.1-5.12-1.99-6.64-5-8.51c3.01-1.87,3.9-3.39,5-8.51
				C57.35,489.5,58.24,491.02,61.25,492.89z"/>
			<path class="st6" d="M61.25,492.89c-3.01,1.87-3.9,3.39-5.01,8.51c-1.1-5.12-1.99-6.64-5-8.51c3.01-1.87,3.9-3.39,5-8.51
				C57.35,489.5,58.24,491.02,61.25,492.89z"/>
		</g>
		<g>
			<path class="st5" d="M44.14,464.89c-3.54,2.2-4.59,3.99-5.89,10.01c-1.3-6.02-2.35-7.81-5.89-10.01
				c3.54-2.2,4.59-3.99,5.89-10.01C39.54,460.9,40.59,462.69,44.14,464.89z"/>
			<path class="st6" d="M44.14,464.89c-3.54,2.2-4.59,3.99-5.89,10.01c-1.3-6.02-2.35-7.81-5.89-10.01
				c3.54-2.2,4.59-3.99,5.89-10.01C39.54,460.9,40.59,462.69,44.14,464.89z"/>
		</g>
		<g>
			<path class="st5" d="M182.82,414.89c-2.15,1.34-2.79,2.42-3.57,6.08c-0.79-3.65-1.43-4.74-3.57-6.08
				c2.15-1.34,2.79-2.42,3.57-6.08C180.03,412.47,180.67,413.55,182.82,414.89z"/>
			<path class="st6" d="M182.82,414.89c-2.15,1.34-2.79,2.42-3.57,6.08c-0.79-3.65-1.43-4.74-3.57-6.08
				c2.15-1.34,2.79-2.42,3.57-6.08C180.03,412.47,180.67,413.55,182.82,414.89z"/>
		</g>
		<g>
			<path class="st5" d="M198.39,441.89c-1.29,0.8-1.67,1.45-2.15,3.65c-0.47-2.19-0.85-2.84-2.15-3.65c1.29-0.8,1.67-1.45,2.15-3.65
				C196.72,440.44,197.1,441.09,198.39,441.89z"/>
			<path class="st6" d="M198.39,441.89c-1.29,0.8-1.67,1.45-2.15,3.65c-0.47-2.19-0.85-2.84-2.15-3.65c1.29-0.8,1.67-1.45,2.15-3.65
				C196.72,440.44,197.1,441.09,198.39,441.89z"/>
		</g>
		<g>
			<path class="st5" d="M198.39,391.89c-1.29,0.8-1.67,1.45-2.15,3.65c-0.47-2.19-0.85-2.84-2.15-3.65c1.29-0.8,1.67-1.45,2.15-3.65
				C196.72,390.44,197.1,391.09,198.39,391.89z"/>
			<path class="st6" d="M198.39,391.89c-1.29,0.8-1.67,1.45-2.15,3.65c-0.47-2.19-0.85-2.84-2.15-3.65c1.29-0.8,1.67-1.45,2.15-3.65
				C196.72,390.44,197.1,391.09,198.39,391.89z"/>
		</g>
		<g>
			<path class="st5" d="M181.39,365.89c-1.29,0.8-1.67,1.45-2.15,3.65c-0.47-2.19-0.85-2.84-2.15-3.65c1.29-0.8,1.67-1.45,2.15-3.65
				C179.72,364.44,180.1,365.09,181.39,365.89z"/>
			<path class="st6" d="M181.39,365.89c-1.29,0.8-1.67,1.45-2.15,3.65c-0.47-2.19-0.85-2.84-2.15-3.65c1.29-0.8,1.67-1.45,2.15-3.65
				C179.72,364.44,180.1,365.09,181.39,365.89z"/>
		</g>
		<g>
			<path class="st5" d="M165.39,341.89c-1.29,0.8-1.67,1.45-2.15,3.65c-0.47-2.19-0.85-2.84-2.15-3.65c1.29-0.8,1.67-1.45,2.15-3.65
				C163.72,340.44,164.1,341.09,165.39,341.89z"/>
			<path class="st6" d="M165.39,341.89c-1.29,0.8-1.67,1.45-2.15,3.65c-0.47-2.19-0.85-2.84-2.15-3.65c1.29-0.8,1.67-1.45,2.15-3.65
				C163.72,340.44,164.1,341.09,165.39,341.89z"/>
		</g>
		<g>
			<path class="st5" d="M55.82,341.83c-0.92,0.62-1.18,1.11-1.46,2.73c-0.41-1.59-0.71-2.05-1.67-2.6c0.92-0.62,1.18-1.11,1.46-2.73
				C54.55,340.82,54.85,341.28,55.82,341.83z"/>
			<path class="st6" d="M55.82,341.83c-0.92,0.62-1.18,1.11-1.46,2.73c-0.41-1.59-0.71-2.05-1.67-2.6c0.92-0.62,1.18-1.11,1.46-2.73
				C54.55,340.82,54.85,341.28,55.82,341.83z"/>
		</g>
		<g>
			<path class="st5" d="M74.82,318.83c-0.92,0.62-1.18,1.11-1.46,2.73c-0.41-1.59-0.71-2.05-1.67-2.6c0.92-0.62,1.18-1.11,1.46-2.73
				C73.55,317.82,73.85,318.28,74.82,318.83z"/>
			<path class="st6" d="M74.82,318.83c-0.92,0.62-1.18,1.11-1.46,2.73c-0.41-1.59-0.71-2.05-1.67-2.6c0.92-0.62,1.18-1.11,1.46-2.73
				C73.55,317.82,73.85,318.28,74.82,318.83z"/>
		</g>
		<g>
			<path class="st5" d="M93.82,294.83c-0.92,0.62-1.18,1.11-1.46,2.73c-0.41-1.59-0.71-2.05-1.67-2.6c0.92-0.62,1.18-1.11,1.46-2.73
				C92.55,293.82,92.85,294.28,93.82,294.83z"/>
			<path class="st6" d="M93.82,294.83c-0.92,0.62-1.18,1.11-1.46,2.73c-0.41-1.59-0.71-2.05-1.67-2.6c0.92-0.62,1.18-1.11,1.46-2.73
				C92.55,293.82,92.85,294.28,93.82,294.83z"/>
		</g>
		<g>
			<path class="st5" d="M109.82,270.83c-0.92,0.62-1.18,1.11-1.46,2.73c-0.41-1.59-0.71-2.05-1.67-2.6
				c0.92-0.62,1.18-1.11,1.46-2.73C108.55,269.82,108.85,270.28,109.82,270.83z"/>
			<path class="st6" d="M109.82,270.83c-0.92,0.62-1.18,1.11-1.46,2.73c-0.41-1.59-0.71-2.05-1.67-2.6
				c0.92-0.62,1.18-1.11,1.46-2.73C108.55,269.82,108.85,270.28,109.82,270.83z"/>
		</g>
		<g>
			<path class="st5" d="M38.82,366.83c-0.92,0.62-1.18,1.11-1.46,2.73c-0.41-1.59-0.71-2.05-1.67-2.6c0.92-0.62,1.18-1.11,1.46-2.73
				C37.55,365.82,37.85,366.28,38.82,366.83z"/>
			<path class="st6" d="M38.82,366.83c-0.92,0.62-1.18,1.11-1.46,2.73c-0.41-1.59-0.71-2.05-1.67-2.6c0.92-0.62,1.18-1.11,1.46-2.73
				C37.55,365.82,37.85,366.28,38.82,366.83z"/>
		</g>
		<g>
			<path class="st5" d="M21.82,391.83c-0.92,0.62-1.18,1.11-1.46,2.73c-0.41-1.59-0.71-2.05-1.67-2.6c0.92-0.62,1.18-1.11,1.46-2.73
				C20.55,390.82,20.85,391.28,21.82,391.83z"/>
			<path class="st6" d="M21.82,391.83c-0.92,0.62-1.18,1.11-1.46,2.73c-0.41-1.59-0.71-2.05-1.67-2.6c0.92-0.62,1.18-1.11,1.46-2.73
				C20.55,390.82,20.85,391.28,21.82,391.83z"/>
		</g>
		<g>
			<path class="st5" d="M146.39,318.89c-1.29,0.8-1.67,1.45-2.15,3.65c-0.47-2.19-0.85-2.84-2.15-3.65c1.29-0.8,1.67-1.45,2.15-3.65
				C144.72,317.44,145.1,318.09,146.39,318.89z"/>
			<path class="st6" d="M146.39,318.89c-1.29,0.8-1.67,1.45-2.15,3.65c-0.47-2.19-0.85-2.84-2.15-3.65c1.29-0.8,1.67-1.45,2.15-3.65
				C144.72,317.44,145.1,318.09,146.39,318.89z"/>
		</g>
		<g>
			<path class="st5" d="M126.39,294.89c-1.29,0.8-1.67,1.45-2.15,3.65c-0.47-2.19-0.85-2.84-2.14-3.65c1.29-0.8,1.67-1.45,2.14-3.65
				C124.72,293.44,125.1,294.09,126.39,294.89z"/>
			<path class="st6" d="M126.39,294.89c-1.29,0.8-1.67,1.45-2.15,3.65c-0.47-2.19-0.85-2.84-2.14-3.65c1.29-0.8,1.67-1.45,2.14-3.65
				C124.72,293.44,125.1,294.09,126.39,294.89z"/>
		</g>
		<g>
			<path class="st5" d="M163.82,392.89c-2.15,1.34-2.79,2.42-3.57,6.08c-0.79-3.65-1.43-4.74-3.57-6.08
				c2.15-1.34,2.79-2.42,3.57-6.08C161.03,390.47,161.67,391.55,163.82,392.89z"/>
			<path class="st6" d="M163.82,392.89c-2.15,1.34-2.79,2.42-3.57,6.08c-0.79-3.65-1.43-4.74-3.57-6.08
				c2.15-1.34,2.79-2.42,3.57-6.08C161.03,390.47,161.67,391.55,163.82,392.89z"/>
		</g>
		<g>
			<path class="st5" d="M145.82,367.89c-2.15,1.34-2.79,2.42-3.57,6.08c-0.79-3.65-1.43-4.74-3.57-6.08
				c2.15-1.34,2.79-2.42,3.57-6.08C143.03,365.47,143.67,366.55,145.82,367.89z"/>
			<path class="st6" d="M145.82,367.89c-2.15,1.34-2.79,2.42-3.57,6.08c-0.79-3.65-1.43-4.74-3.57-6.08
				c2.15-1.34,2.79-2.42,3.57-6.08C143.03,365.47,143.67,366.55,145.82,367.89z"/>
		</g>
		<g>
			<path class="st5" d="M77.82,366.89c-2.15,1.34-2.79,2.42-3.58,6.08c-0.79-3.65-1.42-4.74-3.57-6.08
				c2.15-1.34,2.79-2.42,3.57-6.08C75.03,364.47,75.67,365.55,77.82,366.89z"/>
			<path class="st6" d="M77.82,366.89c-2.15,1.34-2.79,2.42-3.58,6.08c-0.79-3.65-1.42-4.74-3.57-6.08
				c2.15-1.34,2.79-2.42,3.57-6.08C75.03,364.47,75.67,365.55,77.82,366.89z"/>
		</g>
		<g>
			<path class="st5" d="M59.82,391.89c-2.15,1.34-2.79,2.42-3.58,6.08c-0.79-3.65-1.42-4.74-3.57-6.08
				c2.15-1.34,2.79-2.42,3.57-6.08C57.03,389.47,57.67,390.55,59.82,391.89z"/>
			<path class="st6" d="M59.82,391.89c-2.15,1.34-2.79,2.42-3.58,6.08c-0.79-3.65-1.42-4.74-3.57-6.08
				c2.15-1.34,2.79-2.42,3.57-6.08C57.03,389.47,57.67,390.55,59.82,391.89z"/>
		</g>
		<g>
			<path class="st5" d="M40.82,414.89c-2.15,1.34-2.79,2.42-3.58,6.08c-0.79-3.65-1.42-4.74-3.57-6.08
				c2.15-1.34,2.79-2.42,3.57-6.08C38.03,412.47,38.67,413.55,40.82,414.89z"/>
			<path class="st6" d="M40.82,414.89c-2.15,1.34-2.79,2.42-3.58,6.08c-0.79-3.65-1.42-4.74-3.57-6.08
				c2.15-1.34,2.79-2.42,3.57-6.08C38.03,412.47,38.67,413.55,40.82,414.89z"/>
		</g>
		<g>
			<path class="st5" d="M22.39,441.89c-1.29,0.8-1.67,1.45-2.15,3.65c-0.47-2.19-0.85-2.84-2.15-3.65c1.29-0.8,1.67-1.45,2.15-3.65
				C20.72,440.44,21.1,441.09,22.39,441.89z"/>
			<path class="st6" d="M22.39,441.89c-1.29,0.8-1.67,1.45-2.15,3.65c-0.47-2.19-0.85-2.84-2.15-3.65c1.29-0.8,1.67-1.45,2.15-3.65
				C20.72,440.44,21.1,441.09,22.39,441.89z"/>
		</g>
		<g>
			<path class="st5" d="M128.82,341.89c-2.15,1.34-2.79,2.42-3.57,6.08c-0.79-3.65-1.42-4.74-3.57-6.08
				c2.15-1.34,2.79-2.42,3.57-6.08C126.03,339.47,126.67,340.55,128.82,341.89z"/>
			<path class="st6" d="M128.82,341.89c-2.15,1.34-2.79,2.42-3.57,6.08c-0.79-3.65-1.42-4.74-3.57-6.08
				c2.15-1.34,2.79-2.42,3.57-6.08C126.03,339.47,126.67,340.55,128.82,341.89z"/>
		</g>
		<g>
			<path class="st5" d="M94.82,343.89c-2.15,1.34-2.79,2.42-3.58,6.08c-0.79-3.65-1.42-4.74-3.57-6.08
				c2.15-1.34,2.79-2.42,3.57-6.08C92.03,341.47,92.67,342.55,94.82,343.89z"/>
			<path class="st6" d="M94.82,343.89c-2.15,1.34-2.79,2.42-3.58,6.08c-0.79-3.65-1.42-4.74-3.57-6.08
				c2.15-1.34,2.79-2.42,3.57-6.08C92.03,341.47,92.67,342.55,94.82,343.89z"/>
		</g>
		<g>
			<path class="st5" d="M111.82,318.89c-2.15,1.34-2.79,2.42-3.58,6.08c-0.79-3.65-1.42-4.74-3.57-6.08
				c2.15-1.34,2.79-2.42,3.57-6.08C109.03,316.47,109.67,317.55,111.82,318.89z"/>
			<path class="st6" d="M111.82,318.89c-2.15,1.34-2.79,2.42-3.58,6.08c-0.79-3.65-1.42-4.74-3.57-6.08
				c2.15-1.34,2.79-2.42,3.57-6.08C109.03,316.47,109.67,317.55,111.82,318.89z"/>
		</g>
		<g>
			<path class="st5" d="M184.98,465.89c-4.05,2.52-5.25,4.56-6.73,11.44c-1.48-6.88-2.68-8.92-6.73-11.44
				c4.05-2.52,5.25-4.56,6.73-11.44C179.73,461.33,180.93,463.37,184.98,465.89z"/>
			<path class="st6" d="M184.98,465.89c-4.05,2.52-5.25,4.56-6.73,11.44c-1.48-6.88-2.68-8.92-6.73-11.44
				c4.05-2.52,5.25-4.56,6.73-11.44C179.73,461.33,180.93,463.37,184.98,465.89z"/>
		</g>
		<g>
			<path class="st5" d="M22.22,488.82c-1.29,0.8-1.67,1.45-2.15,3.65c-0.47-2.19-0.85-2.84-2.15-3.65c1.29-0.8,1.67-1.45,2.15-3.65
				C20.55,487.36,20.93,488.01,22.22,488.82z"/>
			<path class="st6" d="M22.22,488.82c-1.29,0.8-1.67,1.45-2.15,3.65c-0.47-2.19-0.85-2.84-2.15-3.65c1.29-0.8,1.67-1.45,2.15-3.65
				C20.55,487.36,20.93,488.01,22.22,488.82z"/>
		</g>
		<g>
			<path class="st5" d="M23.22,538.82c-1.29,0.8-1.67,1.45-2.15,3.65c-0.47-2.19-0.85-2.84-2.15-3.65c1.29-0.8,1.67-1.45,2.15-3.65
				C21.55,537.36,21.93,538.01,23.22,538.82z"/>
			<path class="st6" d="M23.22,538.82c-1.29,0.8-1.67,1.45-2.15,3.65c-0.47-2.19-0.85-2.84-2.15-3.65c1.29-0.8,1.67-1.45,2.15-3.65
				C21.55,537.36,21.93,538.01,23.22,538.82z"/>
		</g>
		<g>
			<path class="st5" d="M40.22,563.82c-1.29,0.8-1.67,1.45-2.15,3.65c-0.47-2.19-0.85-2.84-2.15-3.65c1.29-0.8,1.67-1.45,2.15-3.65
				C38.55,562.36,38.93,563.01,40.22,563.82z"/>
			<path class="st6" d="M40.22,563.82c-1.29,0.8-1.67,1.45-2.15,3.65c-0.47-2.19-0.85-2.84-2.15-3.65c1.29-0.8,1.67-1.45,2.15-3.65
				C38.55,562.36,38.93,563.01,40.22,563.82z"/>
		</g>
		<g>
			<path class="st5" d="M57.22,590.82c-1.29,0.8-1.67,1.45-2.15,3.65c-0.47-2.19-0.85-2.84-2.15-3.65c1.29-0.8,1.67-1.45,2.15-3.65
				C55.55,589.36,55.93,590.01,57.22,590.82z"/>
			<path class="st6" d="M57.22,590.82c-1.29,0.8-1.67,1.45-2.15,3.65c-0.47-2.19-0.85-2.84-2.15-3.65c1.29-0.8,1.67-1.45,2.15-3.65
				C55.55,589.36,55.93,590.01,57.22,590.82z"/>
		</g>
		<g>
			<path class="st5" d="M74.22,615.82c-1.29,0.8-1.67,1.45-2.14,3.65c-0.47-2.19-0.86-2.84-2.14-3.65c1.29-0.8,1.67-1.45,2.14-3.65
				C72.55,614.36,72.93,615.01,74.22,615.82z"/>
			<path class="st6" d="M74.22,615.82c-1.29,0.8-1.67,1.45-2.14,3.65c-0.47-2.19-0.86-2.84-2.14-3.65c1.29-0.8,1.67-1.45,2.14-3.65
				C72.55,614.36,72.93,615.01,74.22,615.82z"/>
		</g>
		<g>
			<path class="st5" d="M93.22,638.82c-1.29,0.8-1.67,1.45-2.14,3.65c-0.47-2.19-0.86-2.84-2.14-3.65c1.29-0.8,1.67-1.45,2.14-3.65
				C91.55,637.36,91.93,638.01,93.22,638.82z"/>
			<path class="st6" d="M93.22,638.82c-1.29,0.8-1.67,1.45-2.14,3.65c-0.47-2.19-0.86-2.84-2.14-3.65c1.29-0.8,1.67-1.45,2.14-3.65
				C91.55,637.36,91.93,638.01,93.22,638.82z"/>
		</g>
		<g>
			<path class="st5" d="M110.22,663.82c-1.29,0.8-1.67,1.45-2.14,3.65c-0.47-2.19-0.86-2.84-2.14-3.65c1.29-0.8,1.67-1.45,2.14-3.65
				C108.55,662.36,108.93,663.01,110.22,663.82z"/>
			<path class="st6" d="M110.22,663.82c-1.29,0.8-1.67,1.45-2.14,3.65c-0.47-2.19-0.86-2.84-2.14-3.65c1.29-0.8,1.67-1.45,2.14-3.65
				C108.55,662.36,108.93,663.01,110.22,663.82z"/>
		</g>
		<g>
			<path class="st5" d="M125.22,638.82c-1.29,0.8-1.67,1.45-2.14,3.65c-0.47-2.19-0.86-2.84-2.14-3.65c1.29-0.8,1.67-1.45,2.14-3.65
				C123.55,637.36,123.93,638.01,125.22,638.82z"/>
			<path class="st6" d="M125.22,638.82c-1.29,0.8-1.67,1.45-2.14,3.65c-0.47-2.19-0.86-2.84-2.14-3.65c1.29-0.8,1.67-1.45,2.14-3.65
				C123.55,637.36,123.93,638.01,125.22,638.82z"/>
		</g>
		<g>
			<path class="st5" d="M146.22,612.82c-1.29,0.8-1.67,1.45-2.15,3.65c-0.47-2.19-0.85-2.84-2.15-3.65c1.29-0.8,1.67-1.45,2.15-3.65
				C144.55,611.36,144.93,612.01,146.22,612.82z"/>
			<path class="st6" d="M146.22,612.82c-1.29,0.8-1.67,1.45-2.15,3.65c-0.47-2.19-0.85-2.84-2.15-3.65c1.29-0.8,1.67-1.45,2.15-3.65
				C144.55,611.36,144.93,612.01,146.22,612.82z"/>
		</g>
		<g>
			<path class="st5" d="M163.22,588.82c-1.29,0.8-1.67,1.45-2.15,3.65c-0.47-2.19-0.85-2.84-2.15-3.65c1.29-0.8,1.67-1.45,2.15-3.65
				C161.55,587.36,161.93,588.01,163.22,588.82z"/>
			<path class="st6" d="M163.22,588.82c-1.29,0.8-1.67,1.45-2.15,3.65c-0.47-2.19-0.85-2.84-2.15-3.65c1.29-0.8,1.67-1.45,2.15-3.65
				C161.55,587.36,161.93,588.01,163.22,588.82z"/>
		</g>
		<g>
			<path class="st5" d="M181.22,564.82c-1.29,0.8-1.67,1.45-2.15,3.65c-0.47-2.19-0.85-2.84-2.15-3.65c1.29-0.8,1.67-1.45,2.15-3.65
				C179.55,563.36,179.93,564.01,181.22,564.82z"/>
			<path class="st6" d="M181.22,564.82c-1.29,0.8-1.67,1.45-2.15,3.65c-0.47-2.19-0.85-2.84-2.15-3.65c1.29-0.8,1.67-1.45,2.15-3.65
				C179.55,563.36,179.93,564.01,181.22,564.82z"/>
		</g>
		<g>
			<path class="st5" d="M198.22,539.82c-1.29,0.8-1.67,1.45-2.15,3.65c-0.47-2.19-0.85-2.84-2.15-3.65c1.29-0.8,1.67-1.45,2.15-3.65
				C196.55,538.36,196.93,539.01,198.22,539.82z"/>
			<path class="st6" d="M198.22,539.82c-1.29,0.8-1.67,1.45-2.15,3.65c-0.47-2.19-0.85-2.84-2.15-3.65c1.29-0.8,1.67-1.45,2.15-3.65
				C196.55,538.36,196.93,539.01,198.22,539.82z"/>
		</g>
		<g>
			<path class="st5" d="M199.22,488.82c-1.29,0.8-1.67,1.45-2.15,3.65c-0.47-2.19-0.85-2.84-2.15-3.65c1.29-0.8,1.67-1.45,2.15-3.65
				C197.55,487.36,197.93,488.01,199.22,488.82z"/>
			<path class="st6" d="M199.22,488.82c-1.29,0.8-1.67,1.45-2.15,3.65c-0.47-2.19-0.85-2.84-2.15-3.65c1.29-0.8,1.67-1.45,2.15-3.65
				C197.55,487.36,197.93,488.01,199.22,488.82z"/>
		</g>
	</g>
</g>
</svg>
