<?xml version="1.0" encoding="utf-8"?>
<!-- Generator: Adobe Illustrator 27.2.0, SVG Export Plug-In . SVG Version: 6.00 Build 0)  -->
<svg version="1.1" id="Слой_1" xmlns="http://www.w3.org/2000/svg" xmlns:xlink="http://www.w3.org/1999/xlink" x="0px" y="0px"
	 viewBox="0 0 330 74" style="enable-background:new 0 0 330 74;" xml:space="preserve">
<style type="text/css">
	.st0{fill:#FFFFFF;stroke:#CFC7AB;stroke-width:4;stroke-miterlimit:10;}
	.st1{opacity:0.4;fill:none;stroke:#CFC7AB;stroke-width:2;stroke-miterlimit:10;enable-background:new    ;}
	.st2{opacity:0.4;fill:none;stroke:#CFC7AB;stroke-width:3;stroke-linejoin:round;stroke-miterlimit:10;enable-background:new    ;}
</style>
<g>
	<path class="st0" d="M29.3,2.3h271.4c1,1.5,2.1,3,3.1,4.5c2.5,0.6,12.3,3.4,18.7,13.1c4.7,7.1,5.1,14.2,5.1,17.2
		c0,2.8-0.4,10.9-6.2,18.8c-6.4,8.6-15,11.1-17.6,11.8c-1,1.5-2.1,3-3.1,4.5H29.3c-1-1.5-2.1-3-3.1-4.5C1,59.6,2.4,36.8,2.4,36.8
		s-1.4-22,23.9-30C27.3,5.3,28.3,3.8,29.3,2.3z"/>
	<path class="st1" d="M301.1,12c-1-1.5-2-3.1-3.1-4.6H32c0,0.1-3,4.3-3,4.3C16.9,14,8,24.7,7.9,37c-0.1,12.3,8.6,23.1,20.7,25.6
		c1,1.5,2,2.9,3,4.4h266.5c0.9-1.4,1.8-2.7,2.7-4.1c11.8-2.7,20.8-13.7,21.1-25.6C322.3,25,313.4,14.8,301.1,12z"/>
	<path class="st2" d="M26.1,30.9c-2.9,3.5-6.3,6.5-12.5,6.5c6.2,0,9.7,3,12.5,6.3"/>
	<ellipse class="st2" cx="31" cy="37.4" rx="2.9" ry="0.7"/>
	<path class="st2" d="M304,30.9c2.9,3.5,6.3,6.5,12.5,6.5c-6.2,0-9.7,3-12.5,6.3"/>
	<ellipse class="st2" cx="299.1" cy="37.4" rx="2.9" ry="0.7"/>
</g>
</svg>
