<?xml version="1.0" encoding="utf-8"?>
<!-- Generator: Adobe Illustrator 27.2.0, SVG Export Plug-In . SVG Version: 6.00 Build 0)  -->
<svg version="1.1" xmlns="http://www.w3.org/2000/svg" xmlns:xlink="http://www.w3.org/1999/xlink" x="0px" y="0px"
	 viewBox="0 0 240 1000" style="enable-background:new 0 0 240 1000;" xml:space="preserve">
<style type="text/css">
	.st0{fill:#FFFFFF;stroke:#000000;stroke-miterlimit:10;}
</style>
<path class="st0" d="M119.5,41.4c-6.1,7.2-17.1,13.4-27.7,19.3c-7.8,4.4-15.2,8.5-19.3,12.4c-5.7,5.5-5.9,11.3-6.1,17.5
	c-0.2,5.2-0.4,10.5-3.9,15.5l-0.1,0.2l-0.2,0.2c-5.4,4.6-11.3,5.4-16.6,6.2c-8.2,1.2-13.6,1.9-13.6,17v1.6l-1.6,0.3
	c-6.3,1.3-13.8,5.9-13.8,20.7v695.6c0,15.6,8.7,19.6,13.8,20.7l1.6,0.3v1.6c0,15.1,5.4,15.8,13.6,17c5.2,0.7,11.1,1.6,16.5,6.2
	l0.2,0.2l0.1,0.2c3.5,5,3.7,10.4,3.9,15.5c0.2,6.2,0.4,12,6.1,17.5c4.1,3.9,11.5,8.1,19.3,12.4c10.6,5.9,21.5,12.1,27.7,19.3
	c6.1-7.2,17.1-13.4,27.7-19.3c7.8-4.4,15.2-8.5,19.3-12.4c5.7-5.5,5.9-11.3,6.1-17.5c0.2-5.2,0.4-10.5,3.9-15.5l0.1-0.2l0.2-0.2
	c5.4-4.6,11.3-5.4,16.6-6.2c8.2-1.2,13.6-1.9,13.6-17v-1.6l1.6-0.3c5.2-1,13.8-5.1,13.8-20.7V152.3c0-15.6-8.7-19.6-13.8-20.7
	l-1.6-0.3v-1.6c0-15.1-5.4-15.8-13.6-17c-5.2-0.7-11.1-1.6-16.5-6.2l-0.2-0.2l-0.1-0.2c-3.5-5-3.7-10.4-3.9-15.5
	c-0.2-6.2-0.4-12-6.1-17.5c-4.1-3.9-11.5-8.1-19.3-12.4C136.6,54.8,125.7,48.6,119.5,41.4z"/>
</svg>
